<svg width="200" height="250" viewBox="0 0 200 250" fill="none" xmlns="http://www.w3.org/2000/svg">
<path d="M0 0H200V250H0V0Z" fill="url(#paint0_linear_1_44)"/>
<path d="M70.0133 15H87.2V22.1867H77.2V29.3733H87.2V36.56H70.0133V15ZM90.6333 15H107.827V21.2533H97.8267V22.5H107.827V36.8733H90.6333V30.3133H100.633V29.06H90.6333V15ZM111.267 15H128.447V21.2533H118.447V22.5H128.447V36.8733H111.267V30.3133H121.267V29.06H111.267V15Z" fill="#F8F8F8"/>
<path fill-rule="evenodd" clip-rule="evenodd" d="M99.94 175L53.6467 162.147L40 46.4467H160L146.36 162.133L99.94 175ZM66.98 98.82L68.2533 113.007H117.433L115.787 131.407L99.96 135.687H99.9467L84.1467 131.42L83.1333 120.107H68.8867L70.8733 142.387L99.94 150.453L129.053 142.387L132.6 102.627L132.947 98.82L135.507 70.0933H64.4267L65.72 84.2867H119.96L118.667 98.82H66.98V98.82Z" fill="#F8F8F8"/>
<defs>
<linearGradient id="paint0_linear_1_44" x1="0" y1="0" x2="243.902" y2="195.122" gradientUnits="userSpaceOnUse">
<stop stop-color="#52E5E7"/>
<stop offset="1" stop-color="#130CB7"/>
</linearGradient>
</defs>
</svg>
