<svg width="200" height="250" viewBox="0 0 200 250" fill="none" xmlns="http://www.w3.org/2000/svg">
<path d="M0 0H200V250H0V0Z" fill="url(#paint0_linear_1_43)"/>
<path d="M100 111.867C106.572 111.867 111.9 106.539 111.9 99.9667C111.9 93.3945 106.572 88.0667 100 88.0667C93.4278 88.0667 88.1 93.3945 88.1 99.9667C88.1 106.539 93.4278 111.867 100 111.867Z" fill="white"/>
<path d="M66.68 123.627L64.0467 122.953C44.4867 118.013 33.2667 109.613 33.2667 99.94C33.2667 90.26 44.4933 81.8667 64.0467 76.9267L66.68 76.26L67.42 78.8667C69.3969 85.6913 71.9299 92.3425 74.9933 98.7533L75.56 99.94L74.9933 101.127C71.9267 107.547 69.3867 114.2 67.42 121.027L66.68 123.627V123.627ZM62.8333 82.9933C47.9733 87.18 38.8467 93.5667 38.8467 99.94C38.8467 106.3 47.9667 112.693 62.8333 116.873C64.6533 111.087 66.8533 105.427 69.4 99.94C66.8349 94.4442 64.6411 88.7826 62.8333 82.9933V82.9933ZM133.313 123.627L132.58 121.013C130.598 114.187 128.063 107.534 125 101.12L124.433 99.94L125 98.7467C128.067 92.34 130.593 85.68 132.58 78.8533L133.313 76.2533L135.947 76.92C155.513 81.86 166.727 90.2533 166.727 99.94C166.727 109.62 155.507 118.013 135.947 122.953L133.313 123.627V123.627ZM130.58 99.94C133.247 105.713 135.467 111.393 137.16 116.873C152.027 112.693 161.153 106.3 161.153 99.94C161.153 93.5667 152.033 87.1867 137.16 82.9933C135.342 88.7808 133.144 94.442 130.58 99.94V99.94Z" fill="white"/>
<path d="M62.7933 82.9667L62.06 80.3667C56.5533 60.98 58.22 47.0933 66.64 42.2533C74.8733 37.4867 88.12 43.12 101.993 57.3533L103.887 59.3L101.993 61.24C97.0658 66.3646 92.5622 71.8804 88.5267 77.7333L87.7733 78.8133L86.4667 78.92C79.3706 79.4773 72.3317 80.6122 65.42 82.3133L62.7933 82.9667V82.9667ZM73.34 46.1067C71.8467 46.1067 70.5267 46.4333 69.4133 47.0733C63.8933 50.2533 62.92 61.3267 66.72 76.2733C72.66 74.96 78.6533 74.02 84.6933 73.4933C88.1901 68.5337 92.0048 63.806 96.1133 59.34C87.4267 50.8933 79.2267 46.1067 73.34 46.1067V46.1067ZM126.653 159.333C118.733 159.333 108.56 153.36 98 142.52L96.1133 140.58L98 138.647C102.928 133.514 107.434 127.991 111.473 122.133L112.22 121.067L113.513 120.94C120.612 120.393 127.653 119.262 134.567 117.56L137.2 116.893L137.94 119.5C143.42 138.873 141.76 152.78 133.353 157.62C131.312 158.777 128.999 159.368 126.653 159.333V159.333ZM103.887 140.533C112.567 148.98 120.773 153.773 126.653 153.773C128.153 153.773 129.473 153.44 130.58 152.807C136.107 149.62 137.087 138.527 133.273 123.58C127.34 124.9 121.34 125.847 115.287 126.373C111.805 131.341 107.996 136.071 103.887 140.533V140.533Z" fill="white"/>
<path d="M137.2 82.9667L134.567 82.3067C127.654 80.6002 120.612 79.4653 113.513 78.9133L112.22 78.8L111.473 77.72C107.44 71.8639 102.934 66.3477 98 61.2267L96.1133 59.2867L98 57.3533C111.867 43.1267 125.107 37.4933 133.353 42.2533C141.767 47.1 143.44 60.9867 137.94 80.3667L137.2 82.9667ZM115.287 73.4933C121.647 74.06 127.673 75.0133 133.273 76.2733C137.08 61.3267 136.107 50.2533 130.58 47.0667C125.087 43.8867 114.747 48.7533 103.887 59.34C107.993 63.8067 111.807 68.5267 115.287 73.4933ZM73.34 159.333C70.9942 159.367 68.6817 158.775 66.64 157.62C58.22 152.78 56.5533 138.88 62.0533 119.5L62.7733 116.893L65.4067 117.56C71.8333 119.18 78.9133 120.32 86.46 120.94L87.7533 121.067L88.5067 122.133C92.5333 127.987 97.04 133.513 101.973 138.647L103.867 140.58L101.973 142.52C91.42 153.367 81.2467 159.333 73.34 159.333V159.333ZM66.72 123.587C62.92 138.533 63.8933 149.627 69.4133 152.813C74.9133 155.947 85.22 151.113 96.1133 140.533C92.0064 136.066 88.1918 131.338 84.6933 126.38C78.6473 125.845 72.6431 124.912 66.72 123.587V123.587Z" fill="white"/>
<path d="M100 127.087C95.42 127.087 90.72 126.893 86 126.5L84.6933 126.387L83.94 125.307C81.2783 121.479 78.774 117.545 76.4333 113.513C74.1099 109.471 71.9504 105.336 69.96 101.12L69.4 99.94L69.96 98.7467C71.9533 94.5333 74.1067 90.4 76.4333 86.36C78.7467 82.3867 81.2733 78.4133 83.94 74.56L84.6933 73.4933L86 73.3733C95.3126 72.5933 104.674 72.5933 113.987 73.3733L115.28 73.5L116.033 74.5667C121.365 82.225 126.048 90.3154 130.033 98.7533L130.587 99.9467L130.033 101.127C126.059 109.57 121.376 117.662 116.033 125.313L115.28 126.393L113.987 126.507C109.28 126.887 104.573 127.087 100 127.087V127.087ZM87.7733 121.06C96.0067 121.68 103.993 121.68 112.22 121.06C116.813 114.335 120.895 107.275 124.433 99.94C120.908 92.5984 116.825 85.5377 112.22 78.82C104.083 78.1933 95.9102 78.1933 87.7733 78.82C83.1649 85.5353 79.0817 92.5963 75.56 99.94C79.1058 107.271 83.1881 114.33 87.7733 121.06V121.06Z" fill="white"/>
<defs>
<linearGradient id="paint0_linear_1_43" x1="0" y1="0" x2="243.902" y2="195.122" gradientUnits="userSpaceOnUse">
<stop stop-color="#2AFADF"/>
<stop offset="1" stop-color="#4C83FF"/>
</linearGradient>
</defs>
</svg>
